{
    "accessors": [
        {
            "bufferView": 0,
            "byteOffset": 0,
            "componentType": 5126,
            "count": 2375,
            "max": [
                29.879899978637695,
                31.63450050354004,
                48.82640075683594
            ],
            "min": [
                -31.247600555419922,
                12.020700454711914,
                -2.603600025177002
            ],
            "name": "accessor_buffer_Box017_POSITION_0",
            "type": "VEC3"
        },
        {
            "bufferView": 1,
            "byteOffset": 0,
            "componentType": 5126,
            "count": 2375,
            "max": [
                0.9980884790420532,
                0.99991774559021,
                0.996170163154602
            ],
            "min": [
                -0.9984940886497498,
                -0.9999032020568848,
                -1.0
            ],
            "name": "accessor_buffer_Box017_NORMAL_0",
            "type": "VEC3"
        },
        {
            "bufferView": 2,
            "byteOffset": 0,
            "componentType": 5126,
            "count": 2375,
            "max": [
                1.1002000570297241,
                1.2542999982833862
            ],
            "min": [
                -0.08839999884366989,
                -0.14110004901885986
            ],
            "name": "accessor_buffer_Box017_TEXCOORD_0_0",
            "type": "VEC2"
        },
        {
            "bufferView": 3,
            "byteOffset": 0,
            "componentType": 5123,
            "count": 10002,
            "max": [
                2374
            ],
            "min": [
                0
            ],
            "name": "accessor_buffer_Box017_0",
            "type": "SCALAR"
        }
    ],
    "asset": {
        "copyright": "",
        "generator": "blendergltf v1.2.0",
        "version": "2.0"
    },
    "bufferViews": [
        {
            "buffer": 0,
            "byteLength": 28500,
            "byteOffset": 0,
            "byteStride": 12,
            "name": "bufferView_buffer_Box017_POSITION_0",
            "target": 34962
        },
        {
            "buffer": 0,
            "byteLength": 28500,
            "byteOffset": 28500,
            "byteStride": 12,
            "name": "bufferView_buffer_Box017_NORMAL_0",
            "target": 34962
        },
        {
            "buffer": 0,
            "byteLength": 19000,
            "byteOffset": 57000,
            "byteStride": 8,
            "name": "bufferView_buffer_Box017_TEXCOORD_0_0",
            "target": 34962
        },
        {
            "buffer": 0,
            "byteLength": 20008,
            "byteOffset": 76000,
            "name": "bufferView_buffer_Box017_0",
            "target": 34963
        }
    ],
    "buffers": [
        {
            "byteLength": 96008,
            "name": "buffer_untitled",
            "uri": "buffer_untitled.bin"
        }
    ],
    "cameras": [
        {
            "name": "Camera",
            "perspective": {
                "aspectRatio": 1.703595982340029,
                "yfov": 0.5033799409866333,
                "zfar": 100.0,
                "znear": 0.10000000149011612
            },
            "type": "perspective"
        }
    ],
    "meshes": [
        {
            "name": "Box017",
            "primitives": [
                {
                    "attributes": {
                        "NORMAL": 1,
                        "POSITION": 0,
                        "TEXCOORD_0": 2
                    },
                    "indices": 3,
                    "mode": 4
                }
            ]
        }
    ],
    "nodes": [
        {
            "mesh": 0,
            "name": "Box017",
            "rotation": [
                -0.7071068286895752,
                0.0,
                0.0,
                0.7071067094802856
            ],
            "scale": [
                1.0,
                1.0,
                1.0
            ],
            "translation": [
                0.0,
                0.0,
                23.5819149017334
            ]
        },
        {
            "camera": 0,
            "name": "Camera",
            "rotation": [
                -0.09062843769788742,
                -0.8937962651252747,
                -0.2099730223417282,
                0.38578000664711
            ],
            "scale": [
                1.0,
                1.0,
                1.0
            ],
            "translation": [
                -7.481131553649902,
                5.34366512298584,
                -6.5076398849487305
            ]
        },
        {
            "name": "Lamp",
            "rotation": [
                -0.34203386306762695,
                -0.5232755541801453,
                -0.2841663062572479,
                0.7269423007965088
            ],
            "scale": [
                1.0,
                1.0,
                0.9999999403953552
            ],
            "translation": [
                -4.076245307922363,
                5.903861999511719,
                1.0054539442062378
            ]
        }
    ],
    "scene": 0,
    "scenes": [
        {
            "extras": {
                "active_camera": 0,
                "background_color": [
                    0.05087608844041824,
                    0.05087608844041824,
                    0.05087608844041824
                ],
                "frames_per_second": 24
            },
            "name": "Scene",
            "nodes": [
                0,
                2,
                1
            ]
        }
    ]
}
